<svg width="104" height="91" fill="none" xmlns="http://www.w3.org/2000/svg">
  <path d="M29.173 90.331h32.62V74.787c-5.007 1.26-11.388 2.08-14.556-.759-2.525-2.263-1.19-6.073-2.35-9.058-.892-2.297-6.161-3.038-1.4-6.432-5.16-4.89 1.282-5.262.717-7.653-.737-3.12-9.177-4.858-5.867-8.417l9.642-9.612c.543-.681.956-1.19 1.615-1.726 2.701 2.19 9.295 2.125 12.791.806-4.345-.724-7.948-.843-11.16-3.018-1.978-1.341-5.274-4.959-5.25-8.68 1.387 1.647 3.686 5.814 5.352 6.188.237-7.06-.924-13.745 4.595-20.417l3.992-4.504c-.91-.326-1.788-.76-2.736-1.158H29.173v28.858H0v32.269h29.173V90.33Z" fill="#ED3237"/>
  <path fill-rule="evenodd" clip-rule="evenodd" d="M93.783 59.506c1.675-1.28 3.826-4.783 5.126-7.088 1.493-2.648 2.643-5.826 3.441-9.022 1.924-7.706-.053-14.376-3.914-19.236-1.833-2.307-3.642-4.182-6.23-6.005C84.802 12.94 78.222 9.07 72.945 0c1.82 7.787 9.151 15.287 15.31 19.23 8.12 5.199 13.214 11.897 11.366 23.021-1.09 6.567-5.419 14.85-5.84 17.255Z" fill="#ED3237"/>
  <path fill-rule="evenodd" clip-rule="evenodd" d="M87.638 54.99c.212-.69.967-2.033 1.324-2.84 3.183-7.204 3.437-16.938-2.866-21.988-5.79-4.64-8.665-6.415-12.847-12.15-.66-.905-2.833-4.335-3.067-5.254-.243 4.506 5.503 11.192 8.712 14.425 6.092 6.14 11.096 8.572 9.932 21.235-.223 2.429-.912 4.477-1.188 6.572Z" fill="#ED3237"/>
</svg>
